<svg version="1.1" xmlns="http://www.w3.org/2000/svg" viewBox="0 0 1430 631.5" width="2860" height="1263">
  <!-- svg-source:excalidraw -->
  
  <defs>
    <style>
      @font-face {
        font-family: "Virgil";
        src: url("https://excalidraw.com/Virgil.woff2");
      }
      @font-face {
        font-family: "Cascadia";
        src: url("https://excalidraw.com/Cascadia.woff2");
      }
    </style>
  </defs>
  <rect x="0" y="0" width="1430" height="631.5" fill="#ffffff"></rect><g transform="translate(620.2999999999995 18) rotate(0 94 38.5)"><text x="0" y="62" font-family="Cascadia, Segoe UI Emoji" font-size="63.627906976744214px" fill="#495057" text-anchor="start" style="white-space: pre;" direction="ltr">Color</text></g><g stroke-linecap="round" transform="translate(502.2999999999995 131.5) rotate(0 37.5 37.5)"><path d="M0 0 L75 0 L75 75 L0 75" stroke="none" stroke-width="0" fill="#009dae"></path><path d="M0 0 C29.79 0, 59.59 0, 75 0 M0 0 C26.9 0, 53.81 0, 75 0 M75 0 C75 15.43, 75 30.86, 75 75 M75 0 C75 23.94, 75 47.89, 75 75 M75 75 C49.06 75, 23.11 75, 0 75 M75 75 C45.01 75, 15.02 75, 0 75 M0 75 C0 59.28, 0 43.57, 0 0 M0 75 C0 56.03, 0 37.07, 0 0" stroke="#009dae" stroke-width="4" fill="none"></path></g><g stroke-linecap="round" transform="translate(612.7999999999995 130) rotate(0 37.5 37.5)"><path d="M0 0 L75 0 L75 75 L0 75" stroke="none" stroke-width="0" fill="#ffce45"></path><path d="M0 0 C23.84 0, 47.67 0, 75 0 M0 0 C22.93 0, 45.87 0, 75 0 M75 0 C75 20.64, 75 41.29, 75 75 M75 0 C75 23.75, 75 47.5, 75 75 M75 75 C47.01 75, 19.02 75, 0 75 M75 75 C59.95 75, 44.89 75, 0 75 M0 75 C0 59.9, 0 44.79, 0 0 M0 75 C0 58.61, 0 42.22, 0 0" stroke="#ffce45" stroke-width="4" fill="none"></path></g><g stroke-linecap="round" transform="translate(729.7999999999995 131) rotate(0 37.5 37.5)"><path d="M0 0 L75 0 L75 75 L0 75" stroke="none" stroke-width="0" fill="#4e9f3d"></path><path d="M0 0 C23.75 0, 47.5 0, 75 0 M0 0 C27.99 0, 55.98 0, 75 0 M75 0 C75 15.05, 75 30.11, 75 75 M75 0 C75 15.1, 75 30.21, 75 75 M75 75 C58.61 75, 42.22 75, 0 75 M75 75 C56.37 75, 37.75 75, 0 75 M0 75 C0 52.81, 0 30.62, 0 0 M0 75 C0 56.39, 0 37.77, 0 0" stroke="#4e9f3d" stroke-width="4" fill="none"></path></g><g stroke-linecap="round" transform="translate(840.7999999999995 132) rotate(0 37.5 37.5)"><path d="M0 0 L75 0 L75 75 L0 75" stroke="none" stroke-width="0" fill="#e02401"></path><path d="M0 0 C26.58 0, 53.16 0, 75 0 M0 0 C23.01 0, 46.01 0, 75 0 M75 0 C75 19.04, 75 38.07, 75 75 M75 0 C75 22.56, 75 45.11, 75 75 M75 75 C53.32 75, 31.64 75, 0 75 M75 75 C57.22 75, 39.44 75, 0 75 M0 75 C0 50.09, 0 25.18, 0 0 M0 75 C0 45.3, 0 15.61, 0 0" stroke="#e02401" stroke-width="4" fill="none"></path></g><g transform="translate(56.2999999999995 10) rotate(0 150 38.5)"><text x="0" y="62" font-family="Cascadia, Segoe UI Emoji" font-size="63.627906976744214px" fill="#495057" text-anchor="start" style="white-space: pre;" direction="ltr">Posición</text></g><g stroke-linecap="round"><g transform="translate(66.2999999999995 242.5) rotate(0 117.5 0)"><path d="M0 0 C39.17 0, 195.83 0, 235 0 M0 0 C39.17 0, 195.83 0, 235 0" stroke="#495057" stroke-width="4" fill="none"></path></g><g transform="translate(66.2999999999995 242.5) rotate(0 117.5 0)"><path d="M206.81 10.26 C214.92 7.31, 223.02 4.36, 235 0 M206.81 10.26 C216.05 6.9, 225.29 3.53, 235 0" stroke="#495057" stroke-width="4" fill="none"></path></g><g transform="translate(66.2999999999995 242.5) rotate(0 117.5 0)"><path d="M206.81 -10.26 C214.92 -7.31, 223.02 -4.36, 235 0 M206.81 -10.26 C216.05 -6.9, 225.29 -3.53, 235 0" stroke="#495057" stroke-width="4" fill="none"></path></g></g><g stroke-linecap="round"><g transform="translate(64.2999999999995 227.5) rotate(0 0 -60.5)"><path d="M0 0 C0 -20.17, 0 -100.83, 0 -121 M0 0 C0 -20.17, 0 -100.83, 0 -121" stroke="#495057" stroke-width="4" fill="none"></path></g><g transform="translate(64.2999999999995 227.5) rotate(0 0 -60.5)"><path d="M10.26 -92.81 C6.65 -102.74, 3.03 -112.66, 0 -121 M10.26 -92.81 C7.49 -100.43, 4.71 -108.06, 0 -121" stroke="#495057" stroke-width="4" fill="none"></path></g><g transform="translate(64.2999999999995 227.5) rotate(0 0 -60.5)"><path d="M-10.26 -92.81 C-6.65 -102.74, -3.03 -112.66, 0 -121 M-10.26 -92.81 C-7.49 -100.43, -4.71 -108.06, 0 -121" stroke="#495057" stroke-width="4" fill="none"></path></g></g><g stroke-linecap="round" transform="translate(163.3999999999994 148.19999999999982) rotate(0 9 9)"><path d="M14.79 2.11 C16.26 3.35, 17.53 5.54, 17.86 7.44 C18.2 9.34, 17.76 11.83, 16.79 13.5 C15.83 15.17, 13.89 16.8, 12.08 17.46 C10.27 18.12, 7.73 18.12, 5.92 17.46 C4.11 16.8, 2.17 15.17, 1.21 13.5 C0.24 11.83, -0.2 9.34, 0.14 7.44 C0.47 5.54, 1.74 3.35, 3.21 2.11 C4.69 0.87, 7.07 0, 9 0 C10.93 0, 13.31 0.87, 14.79 2.11" stroke="none" stroke-width="0" fill="#495057"></path><path d="M14.79 2.11 C16.26 3.35, 17.53 5.54, 17.86 7.44 C18.2 9.34, 17.76 11.83, 16.79 13.5 C15.83 15.17, 13.89 16.8, 12.08 17.46 C10.27 18.12, 7.73 18.12, 5.92 17.46 C4.11 16.8, 2.17 15.17, 1.21 13.5 C0.24 11.83, -0.2 9.34, 0.14 7.44 C0.47 5.54, 1.74 3.35, 3.21 2.11 C4.69 0.87, 7.07 0, 9 0 C10.93 0, 13.31 0.87, 14.79 2.11" stroke="#495057" stroke-width="4" fill="none"></path></g><g stroke-linecap="round"><g transform="translate(174.2999999999995 243.5) rotate(0 0 -41)"><path d="M0 0 C0 -13.67, 0 -68.33, 0 -82" stroke="#495057" stroke-width="4.5" fill="none" stroke-dasharray="1.5 10"></path></g></g><g stroke-linecap="round"><g transform="translate(175.2999999999995 155.5) rotate(0 -55 0)"><path d="M0 0 C-18.33 0, -91.67 0, -110 0" stroke="#495057" stroke-width="4.5" fill="none" stroke-dasharray="1.5 10"></path></g></g><g transform="translate(150.59999999999968 125.47619047619037) rotate(0 20.784883720930054 8.511904761904702)"><text x="0" y="14.023809523809366" font-family="Cascadia, Segoe UI Emoji" font-size="14.252491694352036px" fill="#495057" text-anchor="start" style="white-space: pre;" direction="ltr">(x,y)</text></g><g transform="translate(95 424) rotate(0 94 38.5)"><text x="0" y="62" font-family="Cascadia, Segoe UI Emoji" font-size="63.627906976744214px" fill="#495057" text-anchor="start" style="white-space: pre;" direction="ltr">Alpha</text></g><g stroke-linecap="round" transform="translate(10 544.5) rotate(0 37.5 37.5)"><path d="M0 0 L75 0 L75 75 L0 75" stroke="none" stroke-width="0" fill="#e02401"></path><path d="M0 0 C23.04 0, 46.09 0, 75 0 M0 0 C17.61 0, 35.22 0, 75 0 M75 0 C75 18.44, 75 36.88, 75 75 M75 0 C75 27.88, 75 55.77, 75 75 M75 75 C55.16 75, 35.32 75, 0 75 M75 75 C50.94 75, 26.87 75, 0 75 M0 75 C0 46.11, 0 17.22, 0 0 M0 75 C0 59.46, 0 43.93, 0 0" stroke="#e02401" stroke-width="4" fill="none"></path></g><g stroke-opacity="0.7" fill-opacity="0.7" stroke-linecap="round" transform="translate(110.5 545) rotate(0 37.5 37.5)"><path d="M0 0 L75 0 L75 75 L0 75" stroke="none" stroke-width="0" fill="#e02401"></path><path d="M0 0 C18.57 0, 37.14 0, 75 0 M0 0 C27.65 0, 55.31 0, 75 0 M75 0 C75 15.39, 75 30.78, 75 75 M75 0 C75 19.72, 75 39.44, 75 75 M75 75 C48.66 75, 22.33 75, 0 75 M75 75 C46.15 75, 17.3 75, 0 75 M0 75 C0 49.16, 0 23.33, 0 0 M0 75 C0 52.26, 0 29.52, 0 0" stroke="#e02401" stroke-width="1" fill="none"></path></g><g stroke-opacity="0.4" fill-opacity="0.4" stroke-linecap="round" transform="translate(208.5 545) rotate(0 37.5 37.5)"><path d="M0 0 L75 0 L75 75 L0 75" stroke="none" stroke-width="0" fill="#e02401"></path><path d="M0 0 C20.06 0, 40.13 0, 75 0 M0 0 C23.19 0, 46.39 0, 75 0 M75 0 C75 28.63, 75 57.26, 75 75 M75 0 C75 22.9, 75 45.8, 75 75 M75 75 C57.15 75, 39.31 75, 0 75 M75 75 C59.38 75, 43.76 75, 0 75 M0 75 C0 56.76, 0 38.53, 0 0 M0 75 C0 53.52, 0 32.04, 0 0" stroke="#e02401" stroke-width="1" fill="none"></path></g><g stroke-opacity="0.1" fill-opacity="0.1" stroke-linecap="round" transform="translate(304.5 546) rotate(0 37.5 37.5)"><path d="M0 0 L75 0 L75 75 L0 75" stroke="none" stroke-width="0" fill="#e02401"></path><path d="M0 0 C22.9 0, 45.8 0, 75 0 M0 0 C17.85 0, 35.69 0, 75 0 M75 0 C75 15.62, 75 31.24, 75 75 M75 0 C75 18.24, 75 36.47, 75 75 M75 75 C53.52 75, 32.04 75, 0 75 M75 75 C56.02 75, 37.05 75, 0 75 M0 75 C0 50.75, 0 26.5, 0 0 M0 75 C0 51.09, 0 27.17, 0 0" stroke="#e02401" stroke-width="1" fill="none"></path></g><g transform="translate(1172.25 39) rotate(0 112.5 38.5)"><text x="0" y="62" font-family="Cascadia, Segoe UI Emoji" font-size="63.627906976744214px" fill="#495057" text-anchor="start" style="white-space: pre;" direction="ltr">Tamaño</text></g><g stroke-linecap="round" transform="translate(1143 134.5) rotate(0 37 37)"><path d="M59.32 7.49 C65.25 11.98, 70.58 19.77, 72.6 26.93 C74.63 34.09, 74.17 43.51, 71.47 50.44 C68.77 57.37, 62.72 64.62, 56.39 68.52 C50.05 72.41, 40.86 74.54, 33.45 73.83 C26.05 73.12, 17.43 69.27, 11.95 64.23 C6.48 59.2, 1.92 50.93, 0.6 43.61 C-0.73 36.29, 0.62 26.95, 3.98 20.31 C7.33 13.67, 14.05 7.04, 20.73 3.77 C27.41 0.5, 36.76 -0.74, 44.07 0.68 C51.37 2.1, 59.58 6.76, 64.54 12.29" stroke="none" stroke-width="0" fill="#4e9f3d"></path><path d="M59.32 7.49 C65.25 11.98, 70.58 19.77, 72.6 26.93 C74.63 34.09, 74.17 43.51, 71.47 50.44 C68.77 57.37, 62.72 64.62, 56.39 68.52 C50.05 72.41, 40.86 74.54, 33.45 73.83 C26.05 73.12, 17.43 69.27, 11.95 64.23 C6.48 59.2, 1.92 50.93, 0.6 43.61 C-0.73 36.29, 0.62 26.95, 3.98 20.31 C7.33 13.67, 14.05 7.04, 20.73 3.77 C27.41 0.5, 36.76 -0.74, 44.07 0.68 C51.37 2.1, 59.58 6.76, 64.54 12.29" stroke="#4e9f3d" stroke-width="1" fill="none"></path></g><g stroke-linecap="round" transform="translate(1240 142.5) rotate(0 31 31)"><path d="M50.93 7.25 C56.01 11.52, 60.38 19.08, 61.53 25.62 C62.68 32.16, 61.17 40.75, 57.85 46.5 C54.53 52.25, 47.84 57.86, 41.6 60.13 C35.36 62.4, 26.64 62.4, 20.4 60.13 C14.16 57.86, 7.47 52.25, 4.15 46.5 C0.83 40.75, -0.68 32.16, 0.47 25.62 C1.62 19.08, 5.99 11.52, 11.07 7.25 C16.16 2.98, 24.36 0, 31 0 C37.64 0, 45.84 2.98, 50.93 7.25" stroke="none" stroke-width="0" fill="#4e9f3d"></path><path d="M50.93 7.25 C56.01 11.52, 60.38 19.08, 61.53 25.62 C62.68 32.16, 61.17 40.75, 57.85 46.5 C54.53 52.25, 47.84 57.86, 41.6 60.13 C35.36 62.4, 26.64 62.4, 20.4 60.13 C14.16 57.86, 7.47 52.25, 4.15 46.5 C0.83 40.75, -0.68 32.16, 0.47 25.62 C1.62 19.08, 5.99 11.52, 11.07 7.25 C16.16 2.98, 24.36 0, 31 0 C37.64 0, 45.84 2.98, 50.93 7.25" stroke="#4e9f3d" stroke-width="1" fill="none"></path></g><g stroke-linecap="round" transform="translate(1325 150.5) rotate(0 23 23)"><path d="M37.78 5.38 C41.56 8.55, 44.79 14.15, 45.65 19.01 C46.51 23.86, 45.38 30.23, 42.92 34.5 C40.45 38.77, 35.5 42.93, 30.87 44.61 C26.24 46.3, 19.76 46.3, 15.13 44.61 C10.5 42.93, 5.55 38.77, 3.08 34.5 C0.62 30.23, -0.51 23.86, 0.35 19.01 C1.21 14.15, 4.44 8.55, 8.22 5.38 C11.99 2.21, 18.07 0, 23 0 C27.93 0, 34.01 2.21, 37.78 5.38" stroke="none" stroke-width="0" fill="#4e9f3d"></path><path d="M37.78 5.38 C41.56 8.55, 44.79 14.15, 45.65 19.01 C46.51 23.86, 45.38 30.23, 42.92 34.5 C40.45 38.77, 35.5 42.93, 30.87 44.61 C26.24 46.3, 19.76 46.3, 15.13 44.61 C10.5 42.93, 5.55 38.77, 3.08 34.5 C0.62 30.23, -0.51 23.86, 0.35 19.01 C1.21 14.15, 4.44 8.55, 8.22 5.38 C11.99 2.21, 18.07 0, 23 0 C27.93 0, 34.01 2.21, 37.78 5.38" stroke="#4e9f3d" stroke-width="1" fill="none"></path></g><g stroke-linecap="round" transform="translate(1387 156.5) rotate(0 16.5 16.5)"><path d="M27.11 3.86 C29.81 6.13, 32.14 10.15, 32.75 13.63 C33.36 17.12, 32.56 21.69, 30.79 24.75 C29.02 27.81, 25.47 30.8, 22.14 32 C18.82 33.21, 14.18 33.21, 10.86 32 C7.53 30.8, 3.98 27.81, 2.21 24.75 C0.44 21.69, -0.36 17.12, 0.25 13.63 C0.86 10.15, 3.19 6.13, 5.89 3.86 C8.6 1.59, 12.96 0, 16.5 0 C20.04 0, 24.4 1.59, 27.11 3.86" stroke="none" stroke-width="0" fill="#4e9f3d"></path><path d="M27.11 3.86 C29.81 6.13, 32.14 10.15, 32.75 13.63 C33.36 17.12, 32.56 21.69, 30.79 24.75 C29.02 27.81, 25.47 30.8, 22.14 32 C18.82 33.21, 14.18 33.21, 10.86 32 C7.53 30.8, 3.98 27.81, 2.21 24.75 C0.44 21.69, -0.36 17.12, 0.25 13.63 C0.86 10.15, 3.19 6.13, 5.89 3.86 C8.6 1.59, 12.96 0, 16.5 0 C20.04 0, 24.4 1.59, 27.11 3.86" stroke="#4e9f3d" stroke-width="1" fill="none"></path></g><g transform="translate(605.75 420.75) rotate(0 94 38.5)"><text x="0" y="62" font-family="Cascadia, Segoe UI Emoji" font-size="63.627906976744214px" fill="#495057" text-anchor="start" style="white-space: pre;" direction="ltr">Forma</text></g><g stroke-linecap="round" transform="translate(542.5 543.25) rotate(0 37 37)"><path d="M59.32 7.49 C65.25 11.98, 70.58 19.77, 72.6 26.93 C74.63 34.09, 74.17 43.51, 71.47 50.44 C68.77 57.37, 62.72 64.62, 56.39 68.52 C50.05 72.41, 40.86 74.54, 33.45 73.83 C26.05 73.12, 17.43 69.27, 11.95 64.23 C6.48 59.2, 1.92 50.93, 0.6 43.61 C-0.73 36.29, 0.62 26.95, 3.98 20.31 C7.33 13.67, 14.05 7.04, 20.73 3.77 C27.41 0.5, 36.76 -0.74, 44.07 0.68 C51.37 2.1, 59.58 6.76, 64.54 12.29" stroke="none" stroke-width="0" fill="#4e9f3d"></path><path d="M59.32 7.49 C65.25 11.98, 70.58 19.77, 72.6 26.93 C74.63 34.09, 74.17 43.51, 71.47 50.44 C68.77 57.37, 62.72 64.62, 56.39 68.52 C50.05 72.41, 40.86 74.54, 33.45 73.83 C26.05 73.12, 17.43 69.27, 11.95 64.23 C6.48 59.2, 1.92 50.93, 0.6 43.61 C-0.73 36.29, 0.62 26.95, 3.98 20.31 C7.33 13.67, 14.05 7.04, 20.73 3.77 C27.41 0.5, 36.76 -0.74, 44.07 0.68 C51.37 2.1, 59.58 6.76, 64.54 12.29" stroke="#4e9f3d" stroke-width="1" fill="none"></path></g><g stroke-linecap="round" transform="translate(650 541.5) rotate(0 40 40)"><path d="M41 0 L80 41 L41 80 L0 41" stroke="none" stroke-width="0" fill="#4e9f3d" fill-rule="evenodd"></path><path d="M41 0 C51.82 11.38, 62.64 22.75, 80 41 M41 0 C52.88 12.49, 64.76 24.98, 80 41 M80 41 C65.36 55.64, 50.71 70.29, 41 80 M80 41 C70.51 50.49, 61.02 59.98, 41 80 M41 80 C30.02 69.55, 19.04 59.11, 0 41 M41 80 C32.34 71.77, 23.69 63.53, 0 41 M0 41 C11.12 29.88, 22.23 18.77, 41 0 M0 41 C10.69 30.31, 21.38 19.62, 41 0" stroke="#4e9f3d" stroke-width="1" fill="none"></path></g><g stroke-linecap="round" transform="translate(781 551.5) rotate(0 35 35)"><path d="M0 0 L70 0 L70 70 L0 70" stroke="none" stroke-width="0" fill="#4e9f3d"></path><path d="M0 0 C24.19 0, 48.39 0, 70 0 M0 0 C20.97 0, 41.93 0, 70 0 M70 0 C70 24.8, 70 49.6, 70 70 M70 0 C70 24.99, 70 49.98, 70 70 M70 70 C48.09 70, 26.18 70, 0 70 M70 70 C45.35 70, 20.71 70, 0 70 M0 70 C0 55.69, 0 41.37, 0 0 M0 70 C0 54.61, 0 39.23, 0 0" stroke="#4e9f3d" stroke-width="1" fill="none"></path></g></svg>